# xmcd
#
# Track frame offsets:
#	150
#	15477
#	31062
#	52050
#	67660
#	87472
#	106730
#	128055
#	145645
#	159687
#	174955
#	190527
#	211720
#	227327
#	247125
#	266410
#	287737
#	305350
#
# Disc length: 4252 seconds
#
# Revision: 1
# Processed by: cddbd v1.5.1PL2 Copyright (c) Steve Scherf et al.
# Submitted via: audiograbber 1.83.01
#
DISCID=e1109a12
DTITLE=NorthStar Country - NM-3001
DYEAR=1900
DGENRE=
TTITLE0=Toby Keith - How Do You Like Me Now - Inst
TTITLE1=George Strait - The Best Day - Inst
TTITLE2=Ty Herndon - No Mercy - Inst
TTITLE3=Andy Griggs - She's More - Inst
TTITLE4=Shania Twain - Rock This Country - Inst
TTITLE5=Kenny Chasney - What I Need To Do - Inst
TTITLE6=Tim McGraw - My Best Friend - Inst
TTITLE7=Phil Vassar - Carlene - Inst
TTITLE8=Tracy Lawrence - Lessons Learned - Inst
TTITLE9=Toby Keith - How Do You Like Me Now - Vocal
TTITLE10=George Strait - The Best Day - Vocal
TTITLE11=Ty Herndon - No Mercy - Vocal
TTITLE12=Andy Griggs - She's More - Vocal
TTITLE13=Shania Twain - Rock This Country - Vocal
TTITLE14=Kenny Chesney - What I need To Do - Vocal
TTITLE15=Tim McGraw - My Best Friend - Vocal
TTITLE16=Phil Vassar - Carlene - Vocal
TTITLE17=Tracy Lawrence - Lessons Learned - Vocal
EXTD=
EXTT0=
EXTT1=
EXTT2=
EXTT3=
EXTT4=
EXTT5=
EXTT6=
EXTT7=
EXTT8=
EXTT9=
EXTT10=
EXTT11=
EXTT12=
EXTT13=
EXTT14=
EXTT15=
EXTT16=
EXTT17=
PLAYORDER=
